HIERARCHY
ROOT mixamorig:Hips
{
	OFFSET 0.000000 201.639420 0.000000
	CHANNELS 6 Xposition Yposition Zposition Xrotation Yrotation Zrotation
	JOINT mixamorig:Spine
	{
		OFFSET 0.006200 19.524994 -2.481800
		CHANNELS 3 Xrotation Yrotation Zrotation
		JOINT mixamorig:Spine1
		{
			OFFSET -0.000900 22.835007 -2.825400
			CHANNELS 3 Xrotation Yrotation Zrotation
			JOINT mixamorig:Spine2
			{
				OFFSET -0.020600 26.552490 -3.193300
				CHANNELS 3 Xrotation Yrotation Zrotation
				JOINT mixamorig:Neck
				{
					OFFSET -0.060000 30.701813 1.352200
					CHANNELS 3 Xrotation Yrotation Zrotation
					JOINT mixamorig:Head
					{
						OFFSET -0.087200 22.547607 3.670900
						CHANNELS 3 Xrotation Yrotation Zrotation
						JOINT mixamorig:HeadTop_End
						{
							OFFSET -0.830600 40.355194 7.893500
							CHANNELS 3 Xrotation Yrotation Zrotation
							End Site
							{
								OFFSET 0.000000 30.592346 0.000000
							}
						}
						JOINT mixamorig:RightEye
						{
							OFFSET -6.302100 18.118591 16.197100
							CHANNELS 3 Xrotation Yrotation Zrotation
							End Site
							{
								OFFSET 0.000000 30.592346 0.000000
							}
						}
						JOINT mixamorig:LeftEye
						{
							OFFSET 6.741500 18.382690 16.401899
							CHANNELS 3 Xrotation Yrotation Zrotation
							End Site
							{
								OFFSET 0.000000 30.592346 0.000000
							}
						}
					}
				}
				JOINT mixamorig:LeftShoulder
				{
					OFFSET 11.924900 18.230499 1.425400
					CHANNELS 3 Xrotation Yrotation Zrotation
					JOINT mixamorig:LeftArm
					{
						OFFSET 25.435989 -0.697632 -5.229300
						CHANNELS 3 Xrotation Yrotation Zrotation
						JOINT mixamorig:LeftForeArm
						{
							OFFSET 54.684776 0.000000 0.000000
							CHANNELS 3 Xrotation Yrotation Zrotation
							JOINT mixamorig:LeftHand
							{
								OFFSET 55.098175 0.000000 0.000000
								CHANNELS 3 Xrotation Yrotation Zrotation
								JOINT mixamorig:LeftHandMiddle1
								{
									OFFSET 23.369751 0.000000 0.000000
									CHANNELS 3 Xrotation Yrotation Zrotation
									JOINT mixamorig:LeftHandMiddle2
									{
										OFFSET 6.378677 0.000000 0.000000
										CHANNELS 3 Xrotation Yrotation Zrotation
										JOINT mixamorig:LeftHandMiddle3
										{
											OFFSET 6.148331 0.000000 0.000000
											CHANNELS 3 Xrotation Yrotation Zrotation
											JOINT mixamorig:LeftHandMiddle4
											{
												OFFSET 6.582504 0.000000 0.000000
												CHANNELS 3 Xrotation Yrotation Zrotation
												End Site
												{
													OFFSET -1.168900 6.395691 1.028606
												}
											}
										}
									}
								}
								JOINT mixamorig:LeftHandThumb1
								{
									OFFSET 7.235672 -3.848206 5.434273
									CHANNELS 3 Xrotation Yrotation Zrotation
									JOINT mixamorig:LeftHandThumb2
									{
										OFFSET 6.568451 -3.792297 3.792300
										CHANNELS 3 Xrotation Yrotation Zrotation
										JOINT mixamorig:LeftHandThumb3
										{
											OFFSET 6.063080 -3.500519 3.500518
											CHANNELS 3 Xrotation Yrotation Zrotation
											JOINT mixamorig:LeftHandThumb4
											{
												OFFSET 4.793182 -2.767334 2.767349
												CHANNELS 3 Xrotation Yrotation Zrotation
												End Site
												{
													OFFSET 0.101639 6.054260 1.275483
												}
											}
										}
									}
								}
								JOINT mixamorig:LeftHandIndex1
								{
									OFFSET 23.101074 -0.309540 4.992809
									CHANNELS 3 Xrotation Yrotation Zrotation
									JOINT mixamorig:LeftHandIndex2
									{
										OFFSET 6.226883 0.000000 0.000000
										CHANNELS 3 Xrotation Yrotation Zrotation
										JOINT mixamorig:LeftHandIndex3
										{
											OFFSET 6.094330 0.000000 0.000000
											CHANNELS 3 Xrotation Yrotation Zrotation
											JOINT mixamorig:LeftHandIndex4
											{
												OFFSET 5.482605 0.000000 0.000000
												CHANNELS 3 Xrotation Yrotation Zrotation
												End Site
												{
													OFFSET -1.427902 5.233032 0.797164
												}
											}
										}
									}
								}
								JOINT mixamorig:LeftHandRing1
								{
									OFFSET 22.299240 0.021149 -3.964172
									CHANNELS 3 Xrotation Yrotation Zrotation
									JOINT mixamorig:LeftHandRing2
									{
										OFFSET 6.321869 0.000000 0.000000
										CHANNELS 3 Xrotation Yrotation Zrotation
										JOINT mixamorig:LeftHandRing3
										{
											OFFSET 5.899796 0.000000 0.000000
											CHANNELS 3 Xrotation Yrotation Zrotation
											JOINT mixamorig:LeftHandRing4
											{
												OFFSET 6.517899 0.000000 0.000000
												CHANNELS 3 Xrotation Yrotation Zrotation
												End Site
												{
													OFFSET -1.637299 6.232208 0.980890
												}
											}
										}
									}
								}
								JOINT mixamorig:LeftHandPinky1
								{
									OFFSET 20.463791 -0.302338 -8.562233
									CHANNELS 3 Xrotation Yrotation Zrotation
									JOINT mixamorig:LeftHandPinky2
									{
										OFFSET 6.908646 0.000000 0.000000
										CHANNELS 3 Xrotation Yrotation Zrotation
										JOINT mixamorig:LeftHandPinky3
										{
											OFFSET 4.622849 0.000000 0.000000
											CHANNELS 3 Xrotation Yrotation Zrotation
											JOINT mixamorig:LeftHandPinky4
											{
												OFFSET 5.216080 0.000000 0.000000
												CHANNELS 3 Xrotation Yrotation Zrotation
												End Site
												{
													OFFSET -0.606308 5.116241 0.814926
												}
											}
										}
									}
								}
							}
						}
					}
				}
				JOINT mixamorig:RightShoulder
				{
					OFFSET -12.001300 18.284088 1.348900
					CHANNELS 3 Xrotation Yrotation Zrotation
					JOINT mixamorig:RightArm
					{
						OFFSET -25.308500 -0.751312 -5.164599
						CHANNELS 3 Xrotation Yrotation Zrotation
						JOINT mixamorig:RightForeArm
						{
							OFFSET -54.684429 0.000000 0.000000
							CHANNELS 3 Xrotation Yrotation Zrotation
							JOINT mixamorig:RightHand
							{
								OFFSET -55.150291 0.000000 0.000000
								CHANNELS 3 Xrotation Yrotation Zrotation
								JOINT mixamorig:RightHandMiddle1
								{
									OFFSET -23.317566 0.000000 0.000000
									CHANNELS 3 Xrotation Yrotation Zrotation
									JOINT mixamorig:RightHandMiddle2
									{
										OFFSET -6.378403 0.000000 0.000000
										CHANNELS 3 Xrotation Yrotation Zrotation
										JOINT mixamorig:RightHandMiddle3
										{
											OFFSET -6.148193 0.000000 0.000000
											CHANNELS 3 Xrotation Yrotation Zrotation
											JOINT mixamorig:RightHandMiddle4
											{
												OFFSET -6.583389 0.000000 0.000000
												CHANNELS 3 Xrotation Yrotation Zrotation
												End Site
												{
													OFFSET 1.171692 6.395905 1.029786
												}
											}
										}
									}
								}
								JOINT mixamorig:RightHandThumb1
								{
									OFFSET -7.190521 -3.860474 5.435846
									CHANNELS 3 Xrotation Yrotation Zrotation
									JOINT mixamorig:RightHandThumb2
									{
										OFFSET -6.567429 -3.791718 3.791708
										CHANNELS 3 Xrotation Yrotation Zrotation
										JOINT mixamorig:RightHandThumb3
										{
											OFFSET -6.062469 -3.500153 3.500166
											CHANNELS 3 Xrotation Yrotation Zrotation
											JOINT mixamorig:RightHandThumb4
											{
												OFFSET -4.792618 -2.767029 2.767022
												CHANNELS 3 Xrotation Yrotation Zrotation
												End Site
												{
													OFFSET -0.100327 6.053253 1.276754
												}
											}
										}
									}
								}
								JOINT mixamorig:RightHandIndex1
								{
									OFFSET -23.048981 -0.310791 4.992554
									CHANNELS 3 Xrotation Yrotation Zrotation
									JOINT mixamorig:RightHandIndex2
									{
										OFFSET -6.227539 0.000000 0.000000
										CHANNELS 3 Xrotation Yrotation Zrotation
										JOINT mixamorig:RightHandIndex3
										{
											OFFSET -6.095047 0.000000 0.000000
											CHANNELS 3 Xrotation Yrotation Zrotation
											JOINT mixamorig:RightHandIndex4
											{
												OFFSET -5.484772 0.000000 0.000000
												CHANNELS 3 Xrotation Yrotation Zrotation
												End Site
												{
													OFFSET 1.420593 5.237305 0.797056
												}
											}
										}
									}
								}
								JOINT mixamorig:RightHandRing1
								{
									OFFSET -22.246323 0.020569 -3.963762
									CHANNELS 3 Xrotation Yrotation Zrotation
									JOINT mixamorig:RightHandRing2
									{
										OFFSET -6.322128 0.000000 0.000000
										CHANNELS 3 Xrotation Yrotation Zrotation
										JOINT mixamorig:RightHandRing3
										{
											OFFSET -5.900024 0.000000 0.000000
											CHANNELS 3 Xrotation Yrotation Zrotation
											JOINT mixamorig:RightHandRing4
											{
												OFFSET -6.518356 0.000000 0.000000
												CHANNELS 3 Xrotation Yrotation Zrotation
												End Site
												{
													OFFSET 1.636398 6.232697 0.982186
												}
											}
										}
									}
								}
								JOINT mixamorig:RightHandPinky1
								{
									OFFSET -20.411011 -0.303314 -8.561701
									CHANNELS 3 Xrotation Yrotation Zrotation
									JOINT mixamorig:RightHandPinky2
									{
										OFFSET -6.907349 0.000000 0.000000
										CHANNELS 3 Xrotation Yrotation Zrotation
										JOINT mixamorig:RightHandPinky3
										{
											OFFSET -4.623840 0.000000 0.000000
											CHANNELS 3 Xrotation Yrotation Zrotation
											JOINT mixamorig:RightHandPinky4
											{
												OFFSET -5.218353 0.000000 0.000000
												CHANNELS 3 Xrotation Yrotation Zrotation
												End Site
												{
													OFFSET 0.602097 5.118835 0.816273
												}
											}
										}
									}
								}
							}
						}
					}
				}
			}
		}
	}
	JOINT mixamorig:LeftUpLeg
	{
		OFFSET 18.168400 -13.561905 -0.039000
		CHANNELS 3 Xrotation Yrotation Zrotation
		JOINT mixamorig:LeftLeg
		{
			OFFSET 0.577358 -80.825211 -3.695000
			CHANNELS 3 Xrotation Yrotation Zrotation
			JOINT mixamorig:LeftFoot
			{
				OFFSET -0.577356 -83.370262 -6.520700
				CHANNELS 3 Xrotation Yrotation Zrotation
				JOINT mixamorig:LeftToeBase
				{
					OFFSET 0.750401 -20.798306 25.135401
					CHANNELS 3 Xrotation Yrotation Zrotation
					JOINT mixamorig:LeftToe_End
					{
						OFFSET -0.000500 0.001200 19.917799
						CHANNELS 3 Xrotation Yrotation Zrotation
						End Site
						{
							OFFSET 0.000000 19.917805 0.000000
						}
					}
				}
			}
		}
	}
	JOINT mixamorig:RightUpLeg
	{
		OFFSET -18.162500 -13.585098 -0.041000
		CHANNELS 3 Xrotation Yrotation Zrotation
		JOINT mixamorig:RightLeg
		{
			OFFSET -0.595024 -80.945297 -3.631900
			CHANNELS 3 Xrotation Yrotation Zrotation
			JOINT mixamorig:RightFoot
			{
				OFFSET 0.595024 -83.218193 -6.561200
				CHANNELS 3 Xrotation Yrotation Zrotation
				JOINT mixamorig:RightToeBase
				{
					OFFSET -0.753601 -20.807106 25.115000
					CHANNELS 3 Xrotation Yrotation Zrotation
					JOINT mixamorig:RightToe_End
					{
						OFFSET 0.000299 0.001700 19.918200
						CHANNELS 3 Xrotation Yrotation Zrotation
						End Site
						{
							OFFSET 0.000000 19.918203 0.000000
						}
					}
				}
			}
		}
	}
}
MOTION
Frames: 4
Frame Time: 0.033333
0.389825 186.939590 -1.932280 9.963288 -29.450399 1.743446 1.759223 0.078354 0.396350 3.577547 0.072765 0.252186 3.577291 0.075906 0.251851 10.760550 4.156172 -6.666412 5.207303 20.611561 -8.236699 -0.000003 0.000000 0.000000 -0.000003 0.000000 0.000000 -0.000003 0.000000 0.000000 2.141343 -17.041675 -11.042126 -66.834992 -5.566486 -40.780242 -0.000111 -105.435731 -0.000093 -33.493161 -25.123937 -25.328360 8.424045 6.706809 -102.986753 7.541209 6.849604 -95.517272 2.240588 5.086474 -47.524603 -0.000001 0.000001 0.000001 14.397970 20.484103 -15.272534 13.322405 66.497301 2.196182 3.638982 30.609465 6.797943 -0.000002 0.000000 0.000000 8.425945 6.706383 -103.002961 7.539274 6.849788 -95.501037 2.240592 5.086487 -47.524603 -0.000002 0.000003 -0.000000 8.425964 6.706398 -103.002968 7.539301 6.849808 -95.501064 2.240590 5.086464 -47.524593 0.000000 -0.000001 0.000001 12.400487 5.796446 -102.925507 7.537092 2.763603 -95.474918 2.240588 5.086481 -47.524589 0.000001 -0.000002 0.000000 5.114394 32.401994 4.785857 -47.990736 12.477347 46.063735 0.000968 98.174107 -0.001002 -4.871611 20.929837 3.465408 7.851570 -6.889532 97.488335 7.908475 -6.881891 97.962897 2.372697 -5.234557 48.743324 0.000000 0.000001 0.000001 34.600123 -2.123805 14.867669 88.757810 -19.941734 45.936956 29.775332 -23.509581 -9.412527 0.000000 0.000002 0.000002 7.851567 -6.889534 97.488328 7.908444 -6.881847 97.962890 2.372698 -5.234572 48.743317 0.000002 -0.000003 -0.000001 7.851578 -6.889544 97.488321 7.908471 -6.881876 97.962903 2.372695 -5.234547 48.743324 -0.000001 0.000004 -0.000000 7.851559 -6.889522 97.488335 7.908453 -6.881882 97.962869 2.372701 -5.234567 48.743321 0.000003 0.000001 -0.000000 -39.457880 8.235302 27.998306 36.898471 -5.191511 -6.757992 -2.677329 23.595496 -10.459088 -0.006002 -0.000009 0.000001 -0.000000 0.000001 0.000000 -34.425974 -0.744212 -10.398794 37.849872 -7.542381 -2.391451 -12.731693 9.911799 14.283199 -0.004308 -0.000003 0.000002 -0.000000 0.000002 -0.000000 
0.981151 186.176270 -2.700047 11.000943 -32.598707 2.529691 1.930400 -0.017652 0.002096 3.755687 -0.046747 0.161127 3.755458 -0.052007 0.161118 10.442473 4.555792 -6.989890 4.595372 22.735120 -8.764954 -0.000003 -0.000000 0.000000 -0.000003 -0.000000 0.000000 -0.000003 -0.000000 0.000000 2.191647 -17.903720 -10.890484 -69.729893 -4.477715 -41.518958 0.000436 -105.574125 0.000435 -34.033993 -24.881729 -25.945517 8.424045 6.706806 -102.986747 7.541208 6.849604 -95.517272 2.240594 5.086479 -47.524600 -0.000001 0.000003 0.000001 14.397972 20.484099 -15.272530 13.322413 66.497308 2.196196 3.638987 30.609462 6.797942 0.000004 -0.000000 0.000000 8.425946 6.706381 -103.002961 7.539274 6.849789 -95.501044 2.240594 5.086487 -47.524603 -0.000000 0.000003 -0.000003 8.425966 6.706396 -103.002968 7.539299 6.849805 -95.501057 2.240588 5.086462 -47.524593 -0.000001 0.000003 0.000001 12.400490 5.796446 -102.925500 7.537092 2.763601 -95.474925 2.240589 5.086482 -47.524589 0.000000 0.000004 0.000001 5.357230 33.969563 4.734069 -48.048875 10.962914 46.344705 -0.001789 95.975585 0.001876 -7.239330 19.551253 7.407436 7.851567 -6.889532 97.488335 7.908477 -6.881883 97.962890 2.372701 -5.234554 48.743317 -0.000001 -0.000001 -0.000001 34.600123 -2.123806 14.867672 88.757816 -19.941731 45.936950 29.775335 -23.509574 -9.412530 0.000001 -0.000001 0.000001 7.851568 -6.889536 97.488335 7.908440 -6.881846 97.962890 2.372701 -5.234566 48.743321 0.000002 0.000001 -0.000001 7.851577 -6.889547 97.488328 7.908477 -6.881879 97.962917 2.372691 -5.234546 48.743317 -0.000001 0.000001 0.000000 7.851560 -6.889523 97.488335 7.908457 -6.881882 97.962869 2.372703 -5.234568 48.743327 0.000002 -0.000001 0.000001 -40.721318 9.196241 29.712300 38.391568 -5.993592 -7.388707 -3.660498 24.988085 -10.053058 -0.348732 0.000001 -0.000001 -0.000000 0.000001 0.000000 -36.748211 1.154610 -8.893827 38.797718 -8.879778 -3.081138 -12.562894 12.001376 14.693552 -0.003706 -0.000002 0.000005 -0.000000 -0.000002 -0.000000 
2.405305 184.938950 -3.125751 12.647956 -33.104646 3.217266 2.074820 -0.272915 -0.075348 4.016997 -0.419030 0.227478 4.016951 -0.420496 0.227163 9.877676 4.910934 -7.318110 2.952578 24.531053 -8.910876 -0.000003 0.000000 -0.000000 -0.000003 0.000000 -0.000000 -0.000003 0.000000 -0.000000 2.215289 -18.980172 -10.609414 -72.421254 -3.322920 -42.406353 0.000331 -105.490783 0.000337 -34.407935 -24.504542 -26.339443 8.424046 6.706809 -102.986747 7.541210 6.849601 -95.517272 2.240592 5.086478 -47.524603 0.000001 -0.000001 -0.000001 14.397965 20.484104 -15.272527 13.322399 66.497301 2.196195 3.638981 30.609462 6.797943 0.000000 0.000000 0.000000 8.425946 6.706384 -103.002968 7.539275 6.849788 -95.501037 2.240600 5.086489 -47.524596 -0.000002 -0.000002 -0.000002 8.425965 6.706397 -103.002968 7.539298 6.849810 -95.501057 2.240591 5.086464 -47.524593 -0.000000 -0.000002 -0.000000 12.400488 5.796446 -102.925507 7.537093 2.763600 -95.474925 2.240593 5.086486 -47.524586 0.000000 -0.000000 0.000001 5.426967 34.827384 5.079522 -48.111644 8.122135 46.930103 -0.000859 92.150426 0.000866 -9.233191 17.989082 11.366857 7.851565 -6.889534 97.488328 7.908470 -6.881886 97.962897 2.372701 -5.234560 48.743317 -0.000003 0.000001 -0.000000 34.600120 -2.123808 14.867672 88.757810 -19.941740 45.936950 29.775335 -23.509578 -9.412529 -0.000001 -0.000002 0.000002 7.851565 -6.889538 97.488328 7.908443 -6.881846 97.962890 2.372697 -5.234567 48.743317 0.000002 0.000003 -0.000002 7.851578 -6.889549 97.488321 7.908478 -6.881876 97.962910 2.372692 -5.234549 48.743321 0.000001 0.000001 0.000000 7.851560 -6.889523 97.488335 7.908458 -6.881882 97.962862 2.372705 -5.234566 48.743324 -0.000003 0.000001 -0.000001 -43.785180 8.845493 30.493427 41.095151 -5.536449 -7.725695 -4.890867 24.078649 -9.496683 -0.538791 -0.000004 -0.000002 0.000000 0.000001 -0.000000 -39.464444 1.802246 -8.860671 40.246200 -9.605239 -2.882180 -12.697694 12.841132 15.134613 -0.003028 0.000042 -0.000006 -0.000000 -0.000002 -0.000000 
4.092479 183.611847 -3.651424 14.569596 -31.448052 3.756715 2.190376 -0.692137 -0.087792 4.319754 -1.148464 0.326897 4.319871 -1.149830 0.326910 9.281502 5.137447 -7.544447 1.034668 25.675378 -9.085489 -0.000003 0.000000 0.000000 -0.000003 0.000000 0.000000 -0.000003 0.000000 0.000000 2.186906 -20.033836 -10.305236 -74.702571 -3.137714 -43.285176 0.000035 -105.724894 0.000041 -34.274671 -23.382746 -26.155977 8.424042 6.706807 -102.986753 7.541210 6.849605 -95.517272 2.240584 5.086476 -47.524596 -0.000000 -0.000002 -0.000001 14.397965 20.484103 -15.272528 13.322403 66.497301 2.196189 3.638981 30.609465 6.797945 0.000004 -0.000000 -0.000000 8.425940 6.706384 -103.002961 7.539274 6.849788 -95.501044 2.240594 5.086484 -47.524600 -0.000001 0.000002 -0.000002 8.425965 6.706400 -103.002975 7.539295 6.849809 -95.501057 2.240589 5.086465 -47.524589 -0.000000 -0.000003 -0.000001 12.400486 5.796448 -102.925500 7.537096 2.763598 -95.474918 2.240590 5.086480 -47.524586 -0.000001 0.000001 0.000001 5.294326 34.455617 5.851731 -47.919815 4.491269 47.547573 0.000879 87.396532 -0.000994 -11.146898 16.230823 15.212278 7.851567 -6.889534 97.488328 7.908476 -6.881884 97.962897 2.372696 -5.234563 48.743327 -0.000006 -0.000002 0.000003 34.600126 -2.123804 14.867672 88.757810 -19.941734 45.936956 29.775325 -23.509576 -9.412527 0.000001 0.000002 0.000001 7.851568 -6.889534 97.488328 7.908448 -6.881848 97.962890 2.372701 -5.234566 48.743317 0.000006 -0.000001 -0.000003 7.851582 -6.889544 97.488328 7.908469 -6.881880 97.962910 2.372693 -5.234546 48.743324 0.000002 -0.000001 -0.000002 7.851562 -6.889519 97.488335 7.908454 -6.881881 97.962869 2.372702 -5.234569 48.743321 0.000003 0.000000 0.000001 -48.004936 7.411133 29.804323 43.977986 -6.162696 -7.098225 -4.892471 23.648277 -9.510820 -1.107292 -0.000001 0.000003 0.000000 0.000000 -0.000000 -42.237548 1.600202 -10.115695 41.920778 -9.667386 -1.804643 -12.897561 12.435843 15.267575 -0.002377 -0.000019 -0.000001 0.000000 -0.000002 -0.000000 
